<svg width="37" height="36" viewBox="0 0 37 36" fill="none" xmlns="http://www.w3.org/2000/svg">
<path id="Vector-off" d="M20.5519 0.164486C20.8648 0.308428 21.1297 0.539087 21.3154 0.829095C21.5011 1.1191 21.5997 1.45629 21.5995 1.80065V34.1999C21.5995 34.544 21.5009 34.8809 21.3154 35.1707C21.1298 35.4604 20.8651 35.691 20.5526 35.8349C20.2401 35.9789 19.8928 36.0302 19.552 35.9829C19.2112 35.9356 18.8911 35.7915 18.6296 35.5679L6.53385 25.2001H1.79996C1.32258 25.2001 0.864754 25.0105 0.527196 24.6729C0.189638 24.3354 0 23.8775 0 23.4002V12.6004C0 12.123 0.189638 11.6652 0.527196 11.3276C0.864754 10.9901 1.32258 10.8004 1.79996 10.8004H6.53385L18.6296 0.43268C18.8909 0.208958 19.2108 0.0647975 19.5515 0.0172665C19.8922 -0.0302645 20.2394 0.0208254 20.5519 0.164486ZM17.9996 5.71556L8.36981 13.9684C8.04376 14.2472 7.62885 14.4004 7.19984 14.4004H3.59992V21.6002H7.19984C7.62885 21.6002 8.04376 21.7534 8.36981 22.0322L17.9996 30.2886V5.71376V5.71556ZM25.7268 13.1296C26.0644 12.7922 26.5221 12.6026 26.9994 12.6026C27.4767 12.6026 27.9344 12.7922 28.272 13.1296L30.5993 15.4551L32.9267 13.1278C33.0927 12.9559 33.2913 12.8188 33.5109 12.7244C33.7305 12.6301 33.9667 12.5804 34.2057 12.5784C34.4447 12.5763 34.6817 12.6218 34.9029 12.7123C35.1241 12.8028 35.3251 12.9365 35.4941 13.1055C35.6631 13.2745 35.7968 13.4755 35.8873 13.6967C35.9778 13.9179 36.0233 14.1549 36.0212 14.3939C36.0192 14.6329 35.9695 14.8691 35.8752 15.0887C35.7808 15.3083 35.6437 15.5069 35.4718 15.6729L33.1445 18.0003L35.4718 20.3276C35.7997 20.6671 35.9811 21.1218 35.977 21.5937C35.9729 22.0657 35.7836 22.5171 35.4499 22.8508C35.1161 23.1846 34.6647 23.3739 34.1928 23.378C33.7208 23.3821 33.2661 23.2007 32.9267 22.8728L30.5993 20.5454L28.272 22.8728C27.9325 23.2007 27.4778 23.3821 27.0059 23.378C26.5339 23.3739 26.0825 23.1846 25.7487 22.8508C25.415 22.5171 25.2257 22.0657 25.2216 21.5937C25.2175 21.1218 25.3989 20.6671 25.7268 20.3276L28.0542 18.0003L25.7268 15.6729C25.3894 15.3354 25.1998 14.8777 25.1998 14.4004C25.1998 13.9231 25.3894 13.4671 25.7268 13.1296Z" fill="white"/>
</svg>
